<svg width="245" height="249" viewBox="0 0 245 249" fill="none" xmlns="http://www.w3.org/2000/svg">
<path d="M122.267 24.9C111.481 24.9 101.136 28.8351 93.509 35.8396C85.8821 42.844 81.5973 52.3443 81.5973 62.25V136.95C81.5973 146.856 85.8821 156.356 93.509 163.36C101.136 170.365 111.481 174.3 122.267 174.3C133.054 174.3 143.398 170.365 151.025 163.36C158.652 156.356 162.937 146.856 162.937 136.95V62.25C162.937 52.3443 158.652 42.844 151.025 35.8396C143.398 28.8351 133.054 24.9 122.267 24.9ZM122.267 0C131.169 0 139.983 1.61014 148.207 4.7385C156.431 7.86686 163.903 12.4521 170.197 18.2326C176.492 24.0131 181.484 30.8755 184.891 38.428C188.297 45.9805 190.051 54.0753 190.051 62.25V136.95C190.051 153.46 182.909 169.293 170.197 180.967C157.486 192.641 140.244 199.2 122.267 199.2C104.29 199.2 87.0489 192.641 74.337 180.967C61.6255 169.293 54.4837 153.46 54.4837 136.95V62.25C54.4837 45.7403 61.6255 29.9067 74.337 18.2326C87.0489 6.55846 104.29 0 122.267 0ZM0.257202 137.324C0.257202 134.022 1.68549 130.855 4.22785 128.52C6.77024 126.185 10.2184 124.874 13.8139 124.874C17.4093 124.874 20.8575 126.185 23.3999 128.52C25.9422 130.855 27.3706 134.022 27.3706 137.324C27.3706 160.338 37.3257 182.41 55.046 198.684C72.7663 214.958 96.8003 224.1 121.861 224.1H122.674C147.734 224.1 171.768 214.958 189.489 198.684C207.209 182.41 217.164 160.338 217.164 137.324C217.164 134.022 218.592 130.855 221.134 128.52C223.677 126.185 227.125 124.874 230.72 124.874C234.316 124.874 237.764 126.185 240.306 128.52C242.849 130.855 244.277 134.022 244.277 137.324C244.277 166.942 231.465 195.347 208.661 216.291C185.856 237.234 154.925 249 122.674 249H121.861C89.6091 249 58.6789 237.234 35.874 216.291C13.0689 195.347 0.257202 166.942 0.257202 137.324Z" fill="#7F5AF0"/>
<rect width="23.6565" height="299.325" rx="11" transform="matrix(-0.691329 -0.72254 -0.72254 0.691329 238.354 42.0928)" fill="#7F5AF0"/>
</svg>
