<svg width="245" height="249" viewBox="0 0 245 249" fill="none" xmlns="http://www.w3.org/2000/svg">
<path d="M122.01 24.9C111.224 24.9 100.879 28.8351 93.2518 35.8396C85.6249 42.844 81.3401 52.3443 81.3401 62.25V136.95C81.3401 146.856 85.6249 156.356 93.2518 163.36C100.879 170.365 111.224 174.3 122.01 174.3C132.796 174.3 143.141 170.365 150.768 163.36C158.395 156.356 162.68 146.856 162.68 136.95V62.25C162.68 52.3443 158.395 42.844 150.768 35.8396C143.141 28.8351 132.796 24.9 122.01 24.9ZM122.01 0C130.912 0 139.726 1.61014 147.95 4.7385C156.174 7.86686 163.646 12.4521 169.94 18.2326C176.235 24.0131 181.227 30.8755 184.634 38.428C188.04 45.9805 189.794 54.0753 189.794 62.25V136.95C189.794 153.46 182.652 169.293 169.94 180.967C157.228 192.641 139.987 199.2 122.01 199.2C104.033 199.2 86.7917 192.641 74.0798 180.967C61.3683 169.293 54.2265 153.46 54.2265 136.95V62.25C54.2265 45.7403 61.3683 29.9067 74.0798 18.2326C86.7917 6.55846 104.033 0 122.01 0ZM0 137.324C0 134.022 1.42829 130.855 3.97065 128.52C6.51304 126.185 9.96124 124.874 13.5567 124.874C17.1521 124.874 20.6003 126.185 23.1427 128.52C25.685 130.855 27.1134 134.022 27.1134 137.324C27.1134 160.338 37.0685 182.41 54.7888 198.684C72.5091 214.958 96.5431 224.1 121.603 224.1H122.417C147.477 224.1 171.511 214.958 189.231 198.684C206.952 182.41 216.907 160.338 216.907 137.324C216.907 134.022 218.335 130.855 220.877 128.52C223.42 126.185 226.868 124.874 230.463 124.874C234.059 124.874 237.507 126.185 240.049 128.52C242.592 130.855 244.02 134.022 244.02 137.324C244.02 166.942 231.208 195.347 208.403 216.291C185.598 237.234 154.668 249 122.417 249H121.603C89.3519 249 58.4217 237.234 35.6168 216.291C12.8117 195.347 0 166.942 0 137.324Z" fill="#7F5AF0"/>
</svg>
